<?xml version="1.0" encoding="UTF-8" standalone="no"?>
<!-- Created with Inkscape (http://www.inkscape.org/) -->

<svg
   xmlns:dc="http://purl.org/dc/elements/1.1/"
   xmlns:cc="http://creativecommons.org/ns#"
   xmlns:rdf="http://www.w3.org/1999/02/22-rdf-syntax-ns#"
   xmlns:svg="http://www.w3.org/2000/svg"
   xmlns="http://www.w3.org/2000/svg"
   xmlns:sodipodi="http://sodipodi.sourceforge.net/DTD/sodipodi-0.dtd"
   xmlns:inkscape="http://www.inkscape.org/namespaces/inkscape"
   id="svg2989"
   height="400"
   width="600"
   version="1.1"
   inkscape:version="0.48.2 r9819"
   sodipodi:docname="10.svg">
  <defs
     id="defs3008" />
  <sodipodi:namedview
     pagecolor="#ffffff"
     bordercolor="#666666"
     borderopacity="1"
     objecttolerance="10"
     gridtolerance="10"
     guidetolerance="10"
     inkscape:pageopacity="0"
     inkscape:pageshadow="2"
     inkscape:window-width="1420"
     inkscape:window-height="784"
     id="namedview3006"
     showgrid="false"
     inkscape:zoom="0.93"
     inkscape:cx="247.69389"
     inkscape:cy="162.2627"
     inkscape:window-x="0"
     inkscape:window-y="0"
     inkscape:window-maximized="0"
     inkscape:current-layer="svg2989" />
  <metadata
     id="metadata2994">
    <rdf:RDF>
      <cc:Work
         rdf:about="">
        <dc:format>image/svg+xml</dc:format>
        <dc:type
           rdf:resource="http://purl.org/dc/dcmitype/StillImage" />
        <dc:title />
      </cc:Work>
    </rdf:RDF>
  </metadata>
  <rect
     x="0"
     y="0"
     width="10"
     height="400"
     mask="none"
     clip-path="none"
     style="fill:#0000ff;fill-rule:evenodd;stroke:#000000;stroke-width:0.44748709px;stroke-linecap:butt;stroke-linejoin:miter"
     id="rect2997" />
  <rect
     x="48.003448"
     y="390"
     width="551.99652"
     height="10"
     mask="none"
     clip-path="none"
     style="fill:#0000ff;fill-rule:evenodd;stroke:#000000;stroke-width:0.30365175px;stroke-linecap:butt;stroke-linejoin:miter"
     id="rect3056" />
  <rect
     x="590"
     y="0"
     width="10"
     height="400"
     mask="none"
     clip-path="none"
     style="fill:#0000ff;fill-rule:evenodd;stroke:#000000;stroke-width:0.44748709px;stroke-linecap:butt;stroke-linejoin:miter"
     id="rect3224" />
  <rect
     x="0"
     y="0"
     width="600"
     height="10"
     mask="none"
     clip-path="none"
     style="fill:#0000ff;fill-rule:evenodd;stroke:#000000;stroke-width:0.31657991px;stroke-linecap:butt;stroke-linejoin:miter"
     id="rect3226" />
  <circle
     sodipodi:ry="15"
     sodipodi:rx="15"
     sodipodi:cy="0"
     sodipodi:cx="0"
     d="M 15,0 C 15,8.2842712 8.2842712,15 0,15 -8.2842712,15 -15,8.2842712 -15,0 c 0,-8.2842712 6.7157288,-15 15,-15 8.2842712,0 15,6.7157288 15,15 z"
     r="15"
     x="30"
     cx="0"
     cy="0"
     transform="translate(100.58759,372.20474)"
     mask="none"
     clip-path="none"
     style="fill:#00ff00"
     id="circle3036" />
  <circle
     sodipodi:ry="15"
     sodipodi:rx="15"
     sodipodi:cy="0"
     sodipodi:cx="0"
     d="M 15,0 C 15,8.2842712 8.2842712,15 0,15 -8.2842712,15 -15,8.2842712 -15,0 c 0,-8.2842712 6.7157288,-15 15,-15 8.2842712,0 15,6.7157288 15,15 z"
     r="15"
     x="30"
     transform="translate(559.38878,37.119912)"
     mask="none"
     cy="0"
     cx="0"
     clip-path="none"
     style="fill:#00ffff;stroke:none"
     id="circle3095" />
  <rect
     id="rect5042"
     style="opacity:0.98999999;fill:#666666"
     height="132.29745"
     width="476.77203"
     y="60.650383"
     x="123.44639" />
  <rect
     style="opacity:0.98999999;fill:#ff0000;fill-opacity:1;stroke:none"
     id="rect5101"
     width="59.396973"
     height="19.798994"
     x="-2.8700562"
     y="397.1716" />
  <text
     xml:space="preserve"
     style="font-size:24px;font-style:normal;font-weight:normal;line-height:125%;letter-spacing:0px;word-spacing:0px;fill:#000000;fill-opacity:1;stroke:none;font-family:Sans"
     x="42.325901"
     y="299.83347"
     id="text5107"
     sodipodi:linespacing="125%"><tspan
       sodipodi:role="line"
       id="tspan5109"
       x="42.325901"
       y="299.83347">RUN RUN RUN RUN RUN RUN RUN</tspan></text>
  <text
     xml:space="preserve"
     style="font-size:24px;font-style:normal;font-weight:normal;line-height:125%;letter-spacing:0px;word-spacing:0px;fill:#000000;fill-opacity:1;stroke:none;font-family:Sans"
     x="171.11984"
     y="133.50043"
     id="text5111"
     sodipodi:linespacing="125%"><tspan
       sodipodi:role="line"
       id="tspan5113"
       x="171.11984"
       y="133.50043">AAAAAAAAAAAAAAAAAAAAAAHHHHHHHHH</tspan></text>
  <rect
     id="rect5115"
     style="opacity:0.98999999;fill:#666666"
     height="160.58174"
     width="35.537399"
     y="234.356"
     x="515.18359" />
  <rect
     x="546.29626"
     y="262.64029"
     width="118.976"
     height="133.71169"
     style="opacity:0.98999999;fill:#666666"
     id="rect5117" />
  <rect
     y="235.95125"
     x="545.84479"
     height="46.669048"
     width="59.396973"
     id="rect5130"
     style="opacity:0.98999999;fill:#ff0000;fill-opacity:1;stroke:none" />
  <rect
     x="53.729687"
     y="59.537678"
     width="35.537399"
     height="178.80602"
     style="opacity:0.98999999;fill:#666666"
     id="rect5132" />
  <rect
     id="rect5134"
     style="opacity:0.98999999;fill:#666666"
     height="148.88651"
     width="49.679535"
     y="91.031921"
     x="6.8423538" />
  <rect
     style="opacity:0.98999999;fill:#ff0000;fill-opacity:1;stroke:none"
     id="rect5136"
     width="59.396973"
     height="51.965477"
     x="-5.6091232"
     y="61.313965" />
  <circle
     id="circle5138"
     style="fill:#ff0000"
     clip-path="none"
     mask="none"
     transform="translate(16.112473,344.99015)"
     cy="0"
     cx="0"
     x="30"
     r="15"
     d="M 15,0 C 15,8.2842712 8.2842712,15 0,15 -8.2842712,15 -15,8.2842712 -15,0 c 0,-8.2842712 6.7157288,-15 15,-15 8.2842712,0 15,6.7157288 15,15 z"
     sodipodi:cx="0"
     sodipodi:cy="0"
     sodipodi:rx="15"
     sodipodi:ry="15" />
  <circle
     sodipodi:ry="15"
     sodipodi:rx="15"
     sodipodi:cy="0"
     sodipodi:cx="0"
     d="M 15,0 C 15,8.2842712 8.2842712,15 0,15 -8.2842712,15 -15,8.2842712 -15,0 c 0,-8.2842712 6.7157288,-15 15,-15 8.2842712,0 15,6.7157288 15,15 z"
     r="15"
     x="30"
     cx="0"
     cy="0"
     transform="translate(361.70297,31.718207)"
     mask="none"
     clip-path="none"
     style="fill:#ff0000"
     id="circle5140" />
  <rect
     x="1.6399367"
     y="236.37082"
     width="476.77203"
     height="119.39422"
     style="opacity:0.98999999;fill:#666666"
     id="rect3021" />
</svg>
