<?xml version="1.0" encoding="UTF-8" standalone="no"?>
<!-- Created with Inkscape (http://www.inkscape.org/) -->

<svg
   xmlns:dc="http://purl.org/dc/elements/1.1/"
   xmlns:cc="http://creativecommons.org/ns#"
   xmlns:rdf="http://www.w3.org/1999/02/22-rdf-syntax-ns#"
   xmlns:svg="http://www.w3.org/2000/svg"
   xmlns="http://www.w3.org/2000/svg"
   xmlns:sodipodi="http://sodipodi.sourceforge.net/DTD/sodipodi-0.dtd"
   xmlns:inkscape="http://www.inkscape.org/namespaces/inkscape"
   id="svg2989"
   height="400"
   width="600"
   version="1.1"
   inkscape:version="0.48.2 r9819"
   sodipodi:docname="19.svg">
  <sodipodi:namedview
     pagecolor="#ffffff"
     bordercolor="#666666"
     borderopacity="1"
     objecttolerance="10"
     gridtolerance="10"
     guidetolerance="10"
     inkscape:pageopacity="0"
     inkscape:pageshadow="2"
     inkscape:window-width="1142"
     inkscape:window-height="712"
     id="namedview3162"
     showgrid="false"
     inkscape:zoom="1.1733333"
     inkscape:cx="238.24454"
     inkscape:cy="211.18478"
     inkscape:window-x="0"
     inkscape:window-y="0"
     inkscape:window-maximized="0"
     inkscape:current-layer="svg2989" />
  <defs
     id="defs2991" />
  <metadata
     id="metadata2994">
    <rdf:RDF>
      <cc:Work
         rdf:about="">
        <dc:format>image/svg+xml</dc:format>
        <dc:type
           rdf:resource="http://purl.org/dc/dcmitype/StillImage" />
        <dc:title />
      </cc:Work>
    </rdf:RDF>
  </metadata>
  <rect
     x="0"
     y="0"
     width="10"
     height="400"
     style="fill:#0000ff;fill-rule:evenodd;stroke:#000000;stroke-width:0.44748709px;stroke-linecap:butt;stroke-linejoin:miter"
     id="rect2997" />
  <rect
     x="0"
     y="390"
     width="600"
     height="10"
     style="fill:#0000ff;fill-rule:evenodd;stroke:#000000;stroke-width:0.31657982px;stroke-linecap:butt;stroke-linejoin:miter"
     id="rect3056" />
  <rect
     x="590"
     y="0"
     width="10"
     height="400"
     style="fill:#0000ff;fill-rule:evenodd;stroke:#000000;stroke-width:0.44748709px;stroke-linecap:butt;stroke-linejoin:miter"
     id="rect3224" />
  <rect
     x="0"
     y="0"
     width="600"
     height="10"
     style="fill:#0000ff;fill-rule:evenodd;stroke:#000000;stroke-width:0.31657991px;stroke-linecap:butt;stroke-linejoin:miter"
     id="rect3226" />
  <circle
     sodipodi:ry="15"
     sodipodi:rx="15"
     sodipodi:cy="0"
     sodipodi:cx="0"
     d="M 15,0 C 15,8.2842712 8.2842712,15 0,15 -8.2842712,15 -15,8.2842712 -15,0 c 0,-8.2842712 6.7157288,-15 15,-15 8.2842712,0 15,6.7157288 15,15 z"
     r="15"
     cx="0"
     cy="0"
     transform="translate(312.44265,169.99656)"
     style="fill:#00ff00"
     id="circle3036" />
  <circle
     sodipodi:ry="15"
     sodipodi:rx="15"
     sodipodi:cy="0"
     sodipodi:cx="0"
     d="M 15,0 C 15,8.2842712 8.2842712,15 0,15 -8.2842712,15 -15,8.2842712 -15,0 c 0,-8.2842712 6.7157288,-15 15,-15 8.2842712,0 15,6.7157288 15,15 z"
     r="15"
     cx="0"
     cy="0"
     transform="translate(69.61821,254.59091)"
     style="fill:#00ffff"
     id="circle3095" />
  <path
     inkscape:connector-curvature="0"
     style="opacity:0.98999999;fill:none;stroke:#0000ff;stroke-width:7.45710373;stroke-linecap:butt;stroke-linejoin:miter;stroke-miterlimit:4;stroke-dasharray:none"
     d="m 334.62,174.4 8.392,3.8947 -0.15562,7.9732 -9.778,10.02 -12.147,3.691 -17.318,-1.1854 -15.738,-7.3743 -10.21,-9.5976 -6.7341,-12.246 -1.4222,-13.664 3.6568,-13.266 9.8087,-13.713 13.257,-10.511 22.7,-10.442 24.487,-5.091 25.531,0.10018 25.018,5.0906 29.568,13.958 24.019,22.108 11.882,20.901 4.7542,23.517 -3.4315,23.511 -10.371,21.413 -20.012,22.106 -24.753,16.734 -39.591,15.529 -42.042,6.604 -39.889,-1.6883 -38.869,-9.1043 -40.421,-19.312 -18.048,-13.3 -16.02,-15.702 -19.207,-28.371 -10.568,-32.535 -0.0373,-32.244 9.4289,-30.873 20.504,-31.419 27.57,-25.543 42.493,-24.813 46.621,-15.88 39.076,-6.7098 39.624,-1.377 39.459,3.9064 38.58,9.1402 27.128,10.055 25.875,12.983 24.143,15.921 21.934,18.869 28.109,34.915 10.565,19.784 7.7024,21.082 5.3662,34.066 -3.1258,34.34 -14.353,39.398 -23.681,34.665 -18.476,18.949 -20.504,16.712 -45.468,27.023 -33.937,14.011 -35.219,10.354 -36.097,6.7709 -36.569,3.2622 -37.001,-0.29413 -36.807,-3.8584 -36.248,-7.433 -35.29,-11.02 -30.61,-13.04 -29.17,-16.06 -27.239,-19.08 -24.844,-22.14 -32.288,-40.36 -12.431,-22.68 -9.397,-24.11 -7.9641,-44.89"
     id="path3950" />
  <circle
     id="circle7052"
     style="fill:#ff0000"
     transform="translate(25.872216,277.92196)"
     cy="0"
     cx="0"
     r="15"
     d="M 15,0 C 15,8.2842712 8.2842712,15 0,15 -8.2842712,15 -15,8.2842712 -15,0 c 0,-8.2842712 6.7157288,-15 15,-15 8.2842712,0 15,6.7157288 15,15 z"
     sodipodi:cx="0"
     sodipodi:cy="0"
     sodipodi:rx="15"
     sodipodi:ry="15" />
  <path
     style="fill:#00ff00;stroke:none"
     d="m 14.225555,321.87698 49.65107,-37.68027 52.721095,-14.41698 -43.729162,34.68161 z"
     id="path7074"
     inkscape:connector-curvature="0"
     sodipodi:nodetypes="ccccc" />
  <path
     sodipodi:nodetypes="ccccc"
     inkscape:connector-curvature="0"
     id="path7584"
     d="m 124.45912,406.25351 34.55234,-51.87647 45.07996,-30.90566 -29.94094,47.10195 z"
     style="fill:#00ff00;stroke:none" />
  <path
     style="fill:#00ff00;stroke:none"
     d="m 305.24134,452.12269 -10.51626,-61.43648 11.53868,-53.42491 10.58871,54.79902 z"
     id="path7586"
     inkscape:connector-curvature="0"
     sodipodi:nodetypes="ccccc" />
  <path
     sodipodi:nodetypes="ccccc"
     inkscape:connector-curvature="0"
     id="path7590"
     d="m 545.79138,195.78062 52.81484,-9.99647 46.65292,7.20576 -47.06647,9.84548 z"
     style="fill:#00ff00;stroke:none" />
  <path
     style="fill:#00ff00;stroke:none"
     d="M 484.03562,87.673461 521.56884,49.19497 563.91967,28.342501 531.00895,63.400608 z"
     id="path7592"
     inkscape:connector-curvature="0"
     sodipodi:nodetypes="ccccc" />
  <path
     sodipodi:nodetypes="ccccc"
     inkscape:connector-curvature="0"
     id="path7594"
     d="M 342.94655,54.300706 331.77593,1.7216785 337.94056,-45.080198 348.83216,1.7552519 z"
     style="fill:#00ff00;stroke:none" />
  <path
     style="fill:#00ff00;stroke:none"
     d="M 231.42551,83.280818 193.33339,53.544276 170.24575,17.404734 204.80898,43.327883 z"
     id="path7596"
     inkscape:connector-curvature="0"
     sodipodi:nodetypes="ccccc" />
  <path
     sodipodi:nodetypes="ccccc"
     inkscape:connector-curvature="0"
     id="path7598"
     d="m 186.6698,163.70549 -47.49492,8.91653 -42.37796,-6.57378 42.30078,-8.7904 z"
     style="fill:#00ff00;stroke:none" />
  <path
     style="fill:#00ff00;stroke:none"
     d="m 251.29159,235.07567 -32.15141,36.07712 -37.56483,20.68791 28.11654,-32.80376 z"
     id="path7600"
     inkscape:connector-curvature="0"
     sodipodi:nodetypes="ccccc" />
  <path
     sodipodi:nodetypes="ccccc"
     inkscape:connector-curvature="0"
     id="path7602"
     d="m 336.12958,240.03314 12.35114,46.7196 -3.47064,42.74413 -11.84714,-41.54843 z"
     style="fill:#00ff00;stroke:none" />
  <path
     sodipodi:nodetypes="ccccc"
     inkscape:connector-curvature="0"
     id="path7606"
     d="m 422.11185,169.22303 44.27001,-10.3917 40.76156,5.34524 -39.35486,10.10936 z"
     style="fill:#00ff00;stroke:none" />
  <path
     style="fill:#00ff00;stroke:none"
     d="m 382.91628,137.17878 9.53232,-29.39961 17.04114,-22.540191 -7.99109,26.400131 z"
     id="path7608"
     inkscape:connector-curvature="0"
     sodipodi:nodetypes="ccccc" />
  <path
     sodipodi:nodetypes="ccccc"
     inkscape:connector-curvature="0"
     id="path7610"
     d="m 318.41497,132.10096 -17.5576,-17.36864 -10.17315,-20.4837 15.95842,15.17782 z"
     style="fill:#00ff00;stroke:none" />
  <rect
     style="opacity:0.98999999;fill:#ff0000;fill-opacity:1;stroke:none"
     id="rect7614"
     width="47.727264"
     height="46.022724"
     x="132.76138"
     y="72.045448" />
  <rect
     y="178.99998"
     x="439.77274"
     height="46.022724"
     width="47.727264"
     id="rect7616"
     style="opacity:0.98999999;fill:#ff0000;fill-opacity:1;stroke:none" />
  <path
     sodipodi:nodetypes="ccccc"
     inkscape:connector-curvature="0"
     id="path7620"
     d="m 520.31686,391.26808 -37.83471,-49.5335 -14.5811,-52.67593 34.81762,43.62094 z"
     style="fill:#00ff00;stroke:none" />
  <rect
     style="opacity:0.98999999;fill:#ff0000;fill-opacity:1;stroke:none"
     id="rect7622"
     width="32.386356"
     height="34.94318"
     x="467.63638"
     y="348.82953" />
  <text
     xml:space="preserve"
     style="font-size:24px;font-style:normal;font-weight:normal;line-height:125%;letter-spacing:0px;word-spacing:0px;fill:#000000;fill-opacity:1;stroke:none;font-family:Sans"
     x="7.6704559"
     y="29.261353"
     id="text8337"
     sodipodi:linespacing="125%"><tspan
       sodipodi:role="line"
       id="tspan8339"
       x="7.6704559"
       y="29.261353">FORGET THE LIMIT</tspan><tspan
       sodipodi:role="line"
       x="7.6704559"
       y="59.261353"
       id="tspan8341">JUST GET THAT SHINY</tspan></text>
</svg>
