<?xml version="1.0" encoding="UTF-8" standalone="no"?>
<!-- Created with Inkscape (http://www.inkscape.org/) -->

<svg
   xmlns:dc="http://purl.org/dc/elements/1.1/"
   xmlns:cc="http://creativecommons.org/ns#"
   xmlns:rdf="http://www.w3.org/1999/02/22-rdf-syntax-ns#"
   xmlns:svg="http://www.w3.org/2000/svg"
   xmlns="http://www.w3.org/2000/svg"
   xmlns:sodipodi="http://sodipodi.sourceforge.net/DTD/sodipodi-0.dtd"
   xmlns:inkscape="http://www.inkscape.org/namespaces/inkscape"
   id="svg2989"
   height="400"
   width="600"
   version="1.1"
   inkscape:version="0.48.2 r9819"
   sodipodi:docname="20.svg">
  <sodipodi:namedview
     pagecolor="#ffffff"
     bordercolor="#666666"
     borderopacity="1"
     objecttolerance="10"
     gridtolerance="10"
     guidetolerance="10"
     inkscape:pageopacity="0"
     inkscape:pageshadow="2"
     inkscape:window-width="1142"
     inkscape:window-height="712"
     id="namedview3162"
     showgrid="false"
     inkscape:zoom="1.1733333"
     inkscape:cx="238.24454"
     inkscape:cy="191.7559"
     inkscape:window-x="0"
     inkscape:window-y="0"
     inkscape:window-maximized="0"
     inkscape:current-layer="svg2989" />
  <defs
     id="defs2991" />
  <metadata
     id="metadata2994">
    <rdf:RDF>
      <cc:Work
         rdf:about="">
        <dc:format>image/svg+xml</dc:format>
        <dc:type
           rdf:resource="http://purl.org/dc/dcmitype/StillImage" />
        <dc:title></dc:title>
      </cc:Work>
    </rdf:RDF>
  </metadata>
  <rect
     x="0"
     y="0"
     width="10"
     height="400"
     style="fill:#0000ff;fill-rule:evenodd;stroke:#000000;stroke-width:0.44748709px;stroke-linecap:butt;stroke-linejoin:miter"
     id="rect2997" />
  <rect
     x="590"
     y="0"
     width="10"
     height="400"
     style="fill:#0000ff;fill-rule:evenodd;stroke:#000000;stroke-width:0.44748709px;stroke-linecap:butt;stroke-linejoin:miter"
     id="rect3224" />
  <rect
     x="0"
     y="0"
     width="600"
     height="10"
     style="fill:#0000ff;fill-rule:evenodd;stroke:#000000;stroke-width:0.31657991px;stroke-linecap:butt;stroke-linejoin:miter"
     id="rect3226" />
  <circle
     sodipodi:ry="15"
     sodipodi:rx="15"
     sodipodi:cy="0"
     sodipodi:cx="0"
     d="M 15,0 C 15,8.2842712 8.2842712,15 0,15 -8.2842712,15 -15,8.2842712 -15,0 c 0,-8.2842712 6.7157288,-15 15,-15 8.2842712,0 15,6.7157288 15,15 z"
     r="15"
     cx="0"
     cy="0"
     transform="translate(565.67505,404.81819)"
     style="fill:#00ffff"
     id="circle3095" />
  <circle
     id="circle7052"
     style="fill:#00ff00"
     transform="translate(480.98587,55.47878)"
     cy="0"
     cx="0"
     r="15"
     d="M 15,0 C 15,8.2842712 8.2842712,15 0,15 -8.2842712,15 -15,8.2842712 -15,0 c 0,-8.2842712 6.7157288,-15 15,-15 8.2842712,0 15,6.7157288 15,15 z"
     sodipodi:cx="0"
     sodipodi:cy="0"
     sodipodi:rx="15"
     sodipodi:ry="15" />
  <path
     inkscape:connector-curvature="0"
     id="path8364"
     d="m 602.04628,123.82954 -483.23865,3.40908 481.5341,-51.13636 z"
     style="fill:#00ff00;stroke:#000000;stroke-width:1px;stroke-linecap:butt;stroke-linejoin:miter;stroke-opacity:1"
     sodipodi:nodetypes="cccc" />
  <path
     inkscape:connector-curvature="0"
     id="path8366"
     d="M 528.75082,205.15909 0.34171009,210.27272 8.8644401,160.8409 z"
     style="fill:#00ff00;stroke:#000000;stroke-width:1px;stroke-linecap:butt;stroke-linejoin:miter;stroke-opacity:1"
     sodipodi:nodetypes="cccc" />
  <path
     inkscape:connector-curvature="0"
     id="path8368"
     d="M 601.194,304.64773 124.77353,299.53409 598.63718,247.54545 z"
     style="fill:#00ff00;stroke:#000000;stroke-width:1px;stroke-linecap:butt;stroke-linejoin:miter;stroke-opacity:1"
     sodipodi:nodetypes="cccc" />
  <path
     sodipodi:nodetypes="cccc"
     style="fill:#00ff00;stroke:#000000;stroke-width:1px;stroke-linecap:butt;stroke-linejoin:miter;stroke-opacity:1"
     d="M 526.194,395.11364 4.6030738,414.71591 2.8985308,341.42045 z"
     id="path8370"
     inkscape:connector-curvature="0" />
  <rect
     id="rect8372"
     style="fill:#0000ff;fill-rule:evenodd;stroke:#000000;stroke-width:0.31657991px;stroke-linecap:butt;stroke-linejoin:miter"
     height="10"
     width="600"
     y="0"
     x="0" />
  <rect
     x="0"
     y="391.19321"
     width="539.54181"
     height="10"
     style="fill:#0000ff;fill-rule:evenodd;stroke:#000000;stroke-width:0.30020663px;stroke-linecap:butt;stroke-linejoin:miter"
     id="rect8374" />
  <circle
     id="circle8376"
     style="fill:#00ffff"
     transform="translate(565.67505,404.81819)"
     cy="0"
     cx="0"
     r="15"
     d="M 15,0 C 15,8.2842712 8.2842712,15 0,15 -8.2842712,15 -15,8.2842712 -15,0 c 0,-8.2842712 6.7157288,-15 15,-15 8.2842712,0 15,6.7157288 15,15 z"
     sodipodi:cx="0"
     sodipodi:cy="0"
     sodipodi:rx="15"
     sodipodi:ry="15" />
</svg>
