<?xml version="1.0" encoding="UTF-8" standalone="no"?>
<!-- Created with Inkscape (http://www.inkscape.org/) -->

<svg
   xmlns:dc="http://purl.org/dc/elements/1.1/"
   xmlns:cc="http://creativecommons.org/ns#"
   xmlns:rdf="http://www.w3.org/1999/02/22-rdf-syntax-ns#"
   xmlns:svg="http://www.w3.org/2000/svg"
   xmlns="http://www.w3.org/2000/svg"
   xmlns:sodipodi="http://sodipodi.sourceforge.net/DTD/sodipodi-0.dtd"
   xmlns:inkscape="http://www.inkscape.org/namespaces/inkscape"
   id="svg2989"
   height="400"
   width="600"
   version="1.1"
   inkscape:version="0.48.2 r9819"
   sodipodi:docname="3.svg">
  <sodipodi:namedview
     pagecolor="#ffffff"
     bordercolor="#666666"
     borderopacity="1"
     objecttolerance="10"
     gridtolerance="10"
     guidetolerance="10"
     inkscape:pageopacity="0"
     inkscape:pageshadow="2"
     inkscape:window-width="1142"
     inkscape:window-height="712"
     id="namedview3162"
     showgrid="false"
     inkscape:zoom="0.82967196"
     inkscape:cx="296.50525"
     inkscape:cy="202.32983"
     inkscape:window-x="0"
     inkscape:window-y="0"
     inkscape:window-maximized="0"
     inkscape:current-layer="svg2989" />
  <defs
     id="defs2991" />
  <metadata
     id="metadata2994">
    <rdf:RDF>
      <cc:Work
         rdf:about="">
        <dc:format>image/svg+xml</dc:format>
        <dc:type
           rdf:resource="http://purl.org/dc/dcmitype/StillImage" />
        <dc:title />
      </cc:Work>
    </rdf:RDF>
  </metadata>
  <g
     id="layer1">
    <rect
       id="rect2997"
       style="stroke-linejoin:miter;fill-rule:evenodd;stroke:#000000;stroke-linecap:butt;stroke-width:0.44748709px;fill:#0000ff;"
       height="400"
       width="10"
       y="0"
       x="0" />
    <rect
       id="rect3056"
       style="stroke-linejoin:miter;fill-rule:evenodd;stroke:#000000;stroke-linecap:butt;stroke-width:0.31657982px;fill:#0000ff;"
       height="10"
       width="600"
       y="390"
       x="0" />
    <rect
       id="rect3224"
       style="stroke-linejoin:miter;fill-rule:evenodd;stroke:#000000;stroke-linecap:butt;stroke-width:0.44748709px;fill:#0000ff;"
       height="400"
       width="10"
       y="0"
       x="590" />
    <rect
       id="rect3226"
       style="stroke-linejoin:miter;fill-rule:evenodd;stroke:#000000;stroke-linecap:butt;stroke-width:0.31657991px;fill:#0000ff;"
       height="10"
       width="600"
       y="0"
       x="0" />
    <circle
       id="circle3036"
       style="fill:#00ff00;"
       transform="translate(27.223744,27.5)"
       cy="0"
       cx="0"
       r="15" />
    <circle
       id="circle3095"
       style="fill:#00ffff;"
       transform="translate(316.7773,183)"
       cy="0"
       cx="0"
       r="15" />
    <path
       id="path3950"
       d="m334.62,174.4,8.392,3.8947-0.15562,7.9732-9.778,10.02-12.147,3.691-17.318-1.1854-15.738-7.3743-10.21-9.5976-6.7341-12.246-1.4222-13.664,3.6568-13.266,9.8087-13.713,13.257-10.511,22.7-10.442,24.487-5.091,25.531,0.10018,25.018,5.0906,29.568,13.958,24.019,22.108,11.882,20.901,4.7542,23.517-3.4315,23.511-10.371,21.413-20.012,22.106-24.753,16.734-39.591,15.529-42.042,6.604-39.889-1.6883-38.869-9.1043-40.421-19.312-18.048-13.3-16.02-15.702-19.207-28.371-10.568-32.535-0.0373-32.244,9.4289-30.873,20.504-31.419,27.57-25.543,42.493-24.813,46.621-15.88,39.076-6.7098,39.624-1.377,39.459,3.9064,38.58,9.1402,27.128,10.055,25.875,12.983,24.143,15.921,21.934,18.869,28.109,34.915,10.565,19.784,7.7024,21.082,5.3662,34.066-3.1258,34.34-14.353,39.398-23.681,34.665-18.476,18.949-20.504,16.712-45.468,27.023-33.937,14.011-35.219,10.354-36.097,6.7709-36.569,3.2622-37.001-0.29413-36.807-3.8584-36.248-7.433l-35.29-11.02-30.61-13.04-29.17-16.06-27.239-19.08-24.844-22.14-32.288-40.36-12.431-22.68-9.397-24.11-7.9641-44.89"
       style="opacity:0.98999999;stroke-linejoin:miter;stroke:#0000ff;stroke-linecap:butt;stroke-miterlimit:4;stroke-dasharray:none;stroke-width:7.45710373;fill:none;" />
  </g>
  <text
     xml:space="preserve"
     style="font-size:24px;font-style:normal;font-weight:normal;line-height:125%;letter-spacing:0px;word-spacing:0px;fill:#000000;fill-opacity:1;stroke:none;font-family:Sans"
     x="20.49003"
     y="36.000713"
     id="text3164"
     sodipodi:linespacing="125%"><tspan
       sodipodi:role="line"
       x="20.49003"
       y="36.000713"
       id="tspan3186">To restart a level, </tspan><tspan
       sodipodi:role="line"
       x="20.49003"
       y="66.000717"
       id="tspan3200">use 'r'.</tspan></text>
  <text
     xml:space="preserve"
     style="font-size:24px;font-style:normal;font-weight:normal;line-height:125%;letter-spacing:0px;word-spacing:0px;fill:#000000;fill-opacity:1;stroke:none;font-family:Sans"
     x="422.97934"
     y="30.411304"
     id="text3206"
     sodipodi:linespacing="125%"><tspan
       sodipodi:role="line"
       id="tspan3208"
       x="422.97934"
       y="30.411304">To pause, </tspan><tspan
       sodipodi:role="line"
       x="422.97934"
       y="60.411304"
       id="tspan3210">use 'p' or 'esc'.</tspan></text>
</svg>
